<?xml version="1.0" encoding="UTF-8" standalone="no"?>
<svg
   xmlns:dc="http://purl.org/dc/elements/1.1/"
   xmlns:cc="http://creativecommons.org/ns#"
   xmlns:rdf="http://www.w3.org/1999/02/22-rdf-syntax-ns#"
   xmlns:svg="http://www.w3.org/2000/svg"
   xmlns="http://www.w3.org/2000/svg"
   viewBox="0 0 194.66667 158.66667"
   height="158.66667"
   width="194.66667"
   xml:space="preserve"
   id="svg834"
   version="1.1"><metadata
     id="metadata840"><rdf:RDF><cc:Work
         rdf:about=""><dc:format>image/svg+xml</dc:format><dc:type
           rdf:resource="http://purl.org/dc/dcmitype/StillImage" /><dc:title></dc:title></cc:Work></rdf:RDF></metadata><defs
     id="defs838"><clipPath
       id="clipPath852"
       clipPathUnits="userSpaceOnUse"><path
         id="path850"
         d="M 0,0 H 146 V 119 H 0 Z" /></clipPath></defs><g
     transform="matrix(1.3333333,0,0,-1.3333333,0,158.66667)"
     id="g842"><g
       id="g844" /><g
       id="g846"><g
         clip-path="url(#clipPath852)"
         id="g848"><path
           id="path854"
           style="fill:#ffffff;fill-opacity:1;fill-rule:nonzero;stroke:none"
           d="M 0,119 H 146 V 0 H 0 Z" /><path
           id="path856"
           style="fill:#ffffff;fill-opacity:1;fill-rule:nonzero;stroke:none"
           d="M 0,119 H 146 V 0 H 0 Z" /><g
           transform="matrix(1,0,0,-1,-161,145)"
           id="g858"><path
             id="path860"
             style="fill:none;stroke:#000000;stroke-width:1;stroke-linecap:round;stroke-linejoin:round;stroke-miterlimit:10;stroke-dasharray:none;stroke-opacity:1"
             d="m 216,72 v 72 l 36,-18 V 90 L 216,72" /></g><g
           transform="matrix(1,0,0,-1,-161,145)"
           id="g862"><path
             id="path864"
             style="fill:none;stroke:#000000;stroke-width:1;stroke-linecap:round;stroke-linejoin:round;stroke-miterlimit:10;stroke-dasharray:none;stroke-opacity:1"
             d="m 162,90 44.1017,0.8167" /></g><path
           id="path866"
           style="fill:#000000;fill-opacity:1;fill-rule:nonzero;stroke:none"
           d="m 53.10033,54.03518 -7.94309,3.14761 -0.11109,-5.99897 z" /><g
           transform="matrix(1,0,0,-1,-161,145)"
           id="g868"><path
             id="path870"
             style="fill:none;stroke:#000000;stroke-width:1;stroke-linecap:butt;stroke-linejoin:miter;stroke-miterlimit:10;stroke-dasharray:none;stroke-opacity:1"
             d="m 214.1003,90.96482 -7.9431,-3.14761 -0.111,5.99897 z" /></g><g
           transform="matrix(1,0,0,-1,-161,145)"
           id="g872"><path
             id="path874"
             style="fill:none;stroke:#000000;stroke-width:1;stroke-linecap:round;stroke-linejoin:round;stroke-miterlimit:10;stroke-dasharray:none;stroke-opacity:1"
             d="m 252,108 h 44.1" /></g><path
           id="path876"
           style="fill:#000000;fill-opacity:1;fill-rule:nonzero;stroke:none"
           d="m 143.1,37 -8,3 v -6 z" /><g
           transform="matrix(1,0,0,-1,-161,145)"
           id="g878"><path
             id="path880"
             style="fill:none;stroke:#000000;stroke-width:1;stroke-linecap:butt;stroke-linejoin:miter;stroke-miterlimit:10;stroke-dasharray:none;stroke-opacity:1"
             d="m 304.1,108 -8,-3 v 6 z" /></g><path
           id="path882"
           style="fill:#ffffff;fill-opacity:1;fill-rule:nonzero;stroke:none"
           d="m 13.03,66.61981 h 17 v -24 h -17 z" /><g
           transform="matrix(1,0,0,-1,21.53,54.61981)"
           id="g884"><text
             id="text888"
             style="font-variant:normal;font-weight:normal;font-size:12px;font-family:Helvetica;-inkscape-font-specification:Helvetica;writing-mode:lr-tb;fill:#000000;fill-opacity:1;fill-rule:nonzero;stroke:none"
             transform="translate(-3.336914,4)"><tspan
               id="tspan886"
               y="0"
               x="0">a</tspan></text>
</g><path
           id="path890"
           style="fill:#ffffff;fill-opacity:1;fill-rule:nonzero;stroke:none"
           d="m 105,49 h 16 V 25 h -16 z" /><g
           transform="matrix(1,0,0,-1,113,37)"
           id="g892"><text
             id="text896"
             style="font-variant:normal;font-weight:normal;font-size:12px;font-family:Helvetica;-inkscape-font-specification:Helvetica;writing-mode:lr-tb;fill:#000000;fill-opacity:1;fill-rule:nonzero;stroke:none"
             transform="translate(-3,4)"><tspan
               id="tspan894"
               y="0"
               x="0">y</tspan></text>
</g><g
           transform="matrix(1,0,0,-1,-161,145)"
           id="g898"><path
             id="path900"
             style="fill:none;stroke:#000000;stroke-width:1;stroke-linecap:round;stroke-linejoin:round;stroke-miterlimit:10;stroke-dasharray:4, 4;stroke-dashoffset:0;stroke-opacity:1"
             d="m 234,27 0.6544,44.50107" /></g><path
           id="path902"
           style="fill:#000000;fill-opacity:1;fill-rule:nonzero;stroke:none"
           d="m 73.77206,65.49979 2.88204,8.04325 -5.99935,-0.08822 z" /><g
           transform="matrix(1,0,0,-1,-161,145)"
           id="g904"><path
             id="path906"
             style="fill:none;stroke:#000000;stroke-width:1;stroke-linecap:butt;stroke-linejoin:miter;stroke-miterlimit:10;stroke-dasharray:none;stroke-opacity:1"
             d="m 234.7721,79.50021 2.882,-8.04325 -5.9993,0.08822 z" /></g><path
           id="path908"
           style="fill:#ffffff;fill-opacity:1;fill-rule:nonzero;stroke:none"
           d="M 85.33439,108.2617 V 82.26166 h -24 v 26.00004 z" /><g
           transform="matrix(0,-1,-1,0,73.33439,95.26166)"
           id="g910"><text
             id="text914"
             style="font-variant:normal;font-weight:normal;font-size:12px;font-family:Helvetica;-inkscape-font-specification:Helvetica;writing-mode:lr-tb;fill:#000000;fill-opacity:1;fill-rule:nonzero;stroke:none"
             transform="translate(-7.669922,4)"><tspan
               id="tspan912"
               y="0"
               x="0 6 12.6744">sel</tspan></text>
</g><g
           transform="matrix(1,0,0,-1,-161,145)"
           id="g916"><path
             id="path918"
             style="fill:none;stroke:#000000;stroke-width:1;stroke-linecap:round;stroke-linejoin:round;stroke-miterlimit:10;stroke-dasharray:none;stroke-opacity:1"
             d="m 162,126 44.1017,0.8167" /></g><path
           id="path920"
           style="fill:#000000;fill-opacity:1;fill-rule:nonzero;stroke:none"
           d="m 53.10033,18.03518 -7.94309,3.14761 -0.11109,-5.99897 z" /><g
           transform="matrix(1,0,0,-1,-161,145)"
           id="g922"><path
             id="path924"
             style="fill:none;stroke:#000000;stroke-width:1;stroke-linecap:butt;stroke-linejoin:miter;stroke-miterlimit:10;stroke-dasharray:none;stroke-opacity:1"
             d="m 214.1003,126.9648 -7.9431,-3.1476 -0.111,5.999 z" /></g><path
           id="path926"
           style="fill:#ffffff;fill-opacity:1;fill-rule:nonzero;stroke:none"
           d="m 13.03,30.61981 h 17 V 6.619815 h -17 z" /><g
           transform="matrix(1,0,0,-1,21.53,18.61981)"
           id="g928"><text
             id="text932"
             style="font-variant:normal;font-weight:normal;font-size:12px;font-family:Helvetica;-inkscape-font-specification:Helvetica;writing-mode:lr-tb;fill:#000000;fill-opacity:1;fill-rule:nonzero;stroke:none"
             transform="translate(-3.336914,4)"><tspan
               id="tspan930"
               y="0"
               x="0">b</tspan></text>
</g></g></g></g></svg>