<?xml version="1.0" encoding="UTF-8" standalone="no"?>
<svg
   xmlns:dc="http://purl.org/dc/elements/1.1/"
   xmlns:cc="http://creativecommons.org/ns#"
   xmlns:rdf="http://www.w3.org/1999/02/22-rdf-syntax-ns#"
   xmlns:svg="http://www.w3.org/2000/svg"
   xmlns="http://www.w3.org/2000/svg"
   viewBox="0 0 426.25 216.25"
   height="216.25"
   width="426.25"
   xml:space="preserve"
   version="1.1"
   id="svg3355"><metadata
     id="metadata3361"><rdf:RDF><cc:Work
         rdf:about=""><dc:format>image/svg+xml</dc:format><dc:type
           rdf:resource="http://purl.org/dc/dcmitype/StillImage" /><dc:title></dc:title></cc:Work></rdf:RDF></metadata><defs
     id="defs3359"><clipPath
       id="clipPath3371"
       clipPathUnits="userSpaceOnUse"><path
         id="path3373"
         d="M 0,0 341,0 341,173 0,173 0,0 Z" /></clipPath></defs><g
     transform="matrix(1.25,0,0,-1.25,0,216.25)"
     id="g3363"><g
       id="g3365" /><g
       id="g3367"><g
         clip-path="url(#clipPath3371)"
         id="g3369"><path
           id="path3375"
           style="fill:#ffffff;fill-opacity:1;fill-rule:nonzero;stroke:none"
           d="M 0,0 341,0 341,173 0,173 0,0 Z" /><path
           id="path3377"
           style="fill:#ffffff;fill-opacity:1;fill-rule:nonzero;stroke:none"
           d="M 0,0 341,0 341,173 0,173 0,0 Z" /><path
           id="path3379"
           style="fill:#ffffff;fill-opacity:1;fill-rule:nonzero;stroke:none"
           d="m 133,46 45,0 0,81 -45,0 0,-81 z" /><g
           transform="matrix(1,0,0,-1,-20,307)"
           id="g3381"><path
             id="path3383"
             style="fill:none;stroke:#000000;stroke-width:1;stroke-linecap:round;stroke-linejoin:round;stroke-miterlimit:10;stroke-dasharray:none;stroke-opacity:1"
             d="m 153,180 45,0 0,81 -45,0 0,-81 z" /></g><g
           transform="matrix(1,0,0,-1,-20,307)"
           id="g3385"><path
             id="path3387"
             style="fill:none;stroke:#000000;stroke-width:1;stroke-linecap:round;stroke-linejoin:round;stroke-miterlimit:10;stroke-dasharray:none;stroke-opacity:1"
             d="m 117,216 26.1,0" /></g><path
           id="path3389"
           style="fill:#000000;fill-opacity:1;fill-rule:nonzero;stroke:none"
           d="m 131.1,91 -8,3 0,-6 8,3 z" /><g
           transform="matrix(1,0,0,-1,-20,307)"
           id="g3391"><path
             id="path3393"
             style="fill:none;stroke:#000000;stroke-width:1;stroke-linecap:butt;stroke-linejoin:miter;stroke-miterlimit:10;stroke-dasharray:none;stroke-opacity:1"
             d="m 151.1,216 -8,-3 0,6 8,-3 z" /></g><g
           transform="matrix(1,0,0,-1,-20,307)"
           id="g3395"><path
             id="path3397"
             style="fill:none;stroke:#000000;stroke-width:1;stroke-linecap:round;stroke-linejoin:round;stroke-miterlimit:10;stroke-dasharray:none;stroke-opacity:1"
             d="m 198,216 26.1,0" /></g><path
           id="path3399"
           style="fill:#000000;fill-opacity:1;fill-rule:nonzero;stroke:none"
           d="m 212.1,91 -8,3 0,-6 8,3 z" /><g
           transform="matrix(1,0,0,-1,-20,307)"
           id="g3401"><path
             id="path3403"
             style="fill:none;stroke:#000000;stroke-width:1;stroke-linecap:butt;stroke-linejoin:miter;stroke-miterlimit:10;stroke-dasharray:none;stroke-opacity:1"
             d="m 232.1,216 -8,-3 0,6 8,-3 z" /></g><g
           transform="matrix(1,0,0,-1,-20,307)"
           id="g3405"><path
             id="path3407"
             style="fill:none;stroke:#000000;stroke-width:1;stroke-linecap:round;stroke-linejoin:round;stroke-miterlimit:10;stroke-dasharray:none;stroke-opacity:1"
             d="m 171,261 4.1562,-9.0938 L 180,261" /></g><path
           id="path3409"
           style="fill:#ffffff;fill-opacity:1;fill-rule:nonzero;stroke:none"
           d="m 214,46 45,0 0,81 -45,0 0,-81 z" /><g
           transform="matrix(1,0,0,-1,-20,307)"
           id="g3411"><path
             id="path3413"
             style="fill:none;stroke:#000000;stroke-width:1;stroke-linecap:round;stroke-linejoin:round;stroke-miterlimit:10;stroke-dasharray:none;stroke-opacity:1"
             d="m 234,180 45,0 0,81 -45,0 0,-81 z" /></g><g
           transform="matrix(1,0,0,-1,-20,307)"
           id="g3415"><path
             id="path3417"
             style="fill:none;stroke:#000000;stroke-width:1;stroke-linecap:round;stroke-linejoin:round;stroke-miterlimit:10;stroke-dasharray:none;stroke-opacity:1"
             d="m 63,216 44.1,0" /></g><path
           id="path3419"
           style="fill:#000000;fill-opacity:1;fill-rule:nonzero;stroke:none"
           d="m 95.1,91 -8,3 0,-6 8,3 z" /><g
           transform="matrix(1,0,0,-1,-20,307)"
           id="g3421"><path
             id="path3423"
             style="fill:none;stroke:#000000;stroke-width:1;stroke-linecap:butt;stroke-linejoin:miter;stroke-miterlimit:10;stroke-dasharray:none;stroke-opacity:1"
             d="m 115.1,216 -8,-3 0,6 8,-3 z" /></g><g
           transform="matrix(1,0,0,-1,-20,307)"
           id="g3425"><path
             id="path3427"
             style="fill:none;stroke:#000000;stroke-width:1;stroke-linecap:round;stroke-linejoin:round;stroke-miterlimit:10;stroke-dasharray:none;stroke-opacity:1"
             d="m 279,216 71.1,0" /></g><path
           id="path3429"
           style="fill:#000000;fill-opacity:1;fill-rule:nonzero;stroke:none"
           d="m 338.1,91 -8,3 0,-6 8,3 z" /><g
           transform="matrix(1,0,0,-1,-20,307)"
           id="g3431"><path
             id="path3433"
             style="fill:none;stroke:#000000;stroke-width:1;stroke-linecap:butt;stroke-linejoin:miter;stroke-miterlimit:10;stroke-dasharray:none;stroke-opacity:1"
             d="m 358.1,216 -8,-3 0,6 8,-3 z" /></g><g
           transform="matrix(1,0,0,-1,-20,307)"
           id="g3435"><path
             id="path3437"
             style="fill:none;stroke:#000000;stroke-width:1;stroke-linecap:round;stroke-linejoin:round;stroke-miterlimit:10;stroke-dasharray:none;stroke-opacity:1"
             d="m 252,261 4.1562,-9.0938 L 261,261" /></g><g
           transform="matrix(1,0,0,-1,-20,307)"
           id="g3439"><path
             id="path3441"
             style="fill:none;stroke:#000000;stroke-width:1;stroke-linecap:round;stroke-linejoin:round;stroke-miterlimit:10;stroke-dasharray:none;stroke-opacity:1"
             d="m 162,306 -45,0 0,-171 45,0" /></g><g
           transform="matrix(1,0,0,-1,-20,307)"
           id="g3443"><text
             id="text3445"
             style="font-variant:normal;font-weight:normal;font-size:12px;font-family:Helvetica;-inkscape-font-specification:Helvetica;writing-mode:lr-tb;fill:#000000;fill-opacity:1;fill-rule:nonzero;stroke:none"
             transform="translate(127.7061,160)"><tspan
               id="tspan3447"
               y="0"
               x="0 8.0039997 14.004 20.6784 26.6784 33.352798 37.348801 44.023201 50.697601 57.372002 64.046402 70.046402 73.379997 79.379997 82.046402 86.042397 92.042397 98.716797 101.3832">Synchronous circuit</tspan></text>
</g><g
           transform="matrix(1,0,0,-1,-20,307)"
           id="g3449"><text
             id="text3451"
             style="font-variant:normal;font-weight:normal;font-size:12px;font-family:Helvetica;-inkscape-font-specification:Helvetica;writing-mode:lr-tb;fill:#000000;fill-opacity:1;fill-rule:nonzero;stroke:none"
             transform="translate(25.04688,250)"><tspan
               id="tspan3453"
               y="0"
               x="0 8.0039997 14.004 17.337601 24.011999 28.007999 34.6824 41.3568 44.023201 47.3568 56.023201 62.697601 66.693604 69.360001">External world</tspan></text>
</g><path
           id="path3455"
           style="fill:#ffffff;fill-opacity:1;fill-rule:nonzero;stroke:none"
           d="m 55.73615,79 26.68164,0 0,24 -26.68164,0 0,-24 z" /><g
           transform="matrix(1,0,0,-1,-20,307)"
           id="g3457"><text
             id="text3459"
             style="font-variant:normal;font-weight:normal;font-size:12px;font-family:Helvetica;-inkscape-font-specification:Helvetica;writing-mode:lr-tb;fill:#000000;fill-opacity:1;fill-rule:nonzero;stroke:none"
             transform="translate(80.73615,220)"><tspan
               id="tspan3461"
               y="0"
               x="0 6.6743999 10.0128">btn</tspan></text>
</g><path
           id="path3463"
           style="fill:#ffffff;fill-opacity:1;fill-rule:nonzero;stroke:none"
           d="m 265.8779,79 53.35938,0 0,24 -53.35938,0 0,-24 z" /><g
           transform="matrix(1,0,0,-1,-20,307)"
           id="g3465"><text
             id="text3467"
             style="font-variant:normal;font-weight:normal;font-size:12px;font-family:Helvetica;-inkscape-font-specification:Helvetica;writing-mode:lr-tb;fill:#000000;fill-opacity:1;fill-rule:nonzero;stroke:none"
             transform="translate(290.8779,220)"><tspan
               id="tspan3469"
               y="0"
               x="0 6.6743999 10.008 16.6824 24.686399 30.686399 37.360802">btnSync</tspan></text>
</g></g></g></g></svg>